<svg width="169" height="169" viewBox="0 0 169 169" fill="none" xmlns="http://www.w3.org/2000/svg">
<path fill-rule="evenodd" clip-rule="evenodd" d="M0.326172 59.9466L59.6668 0.605957L94.6964 35.6356L35.3558 94.9762L0.326172 59.9466ZM42.96 102.58L35.3558 94.9762L9.54259 120.789L50.4504 161.697L76.2636 135.884L109.117 168.738L168.458 109.397L135.604 76.5434L159.242 52.906L118.334 11.9982L94.6964 35.6356L102.301 43.2398L42.96 102.58ZM69.0098 128.63L76.2636 135.884L135.604 76.5434L128.35 69.2896L144.994 52.646L118.944 26.5962L102.301 43.2398L128.35 69.2896L69.0098 128.63ZM69.0098 128.63L42.96 102.58L24.2498 121.291L50.2996 147.34L69.0098 128.63Z" fill="#DA4FC5"/>
</svg>
